<?xml version="1.0" encoding="utf-8"?>
<!-- Generator: Adobe Illustrator 26.0.3, SVG Export Plug-In . SVG Version: 6.00 Build 0)  -->
<svg version="1.1" id="Layer_1" xmlns="http://www.w3.org/2000/svg" xmlns:xlink="http://www.w3.org/1999/xlink" x="0px" y="0px"
	 viewBox="0 0 165.2 38.4" style="enable-background:new 0 0 165.2 38.4;" xml:space="preserve">
<style type="text/css">
	.st0{fill:#FFFFFF;}
</style>
<g id="Layer_2_00000073699834991240990130000012833670919209377460_">
	<g id="Layer_1-2">
		<path class="st0" d="M0,1.1v4.5c0,0.6,0.5,1.1,1.1,1.1l0,0h12.4c2.1-0.1,4.2,0.4,6.1,1.4c1.6,1,3,2.4,3.7,4.1
			c0.9,2.2,1.4,4.5,1.3,6.9c0.1,2.4-0.4,4.8-1.3,7c-0.8,1.7-2.1,3.2-3.7,4.2c-1.9,1-4,1.5-6.1,1.4H8.1c-0.6,0-1.1-0.5-1.1-1.1
			c0-0.1,0-0.1,0-0.2l1.8-11.5c0.1-0.6-0.3-1.2-0.9-1.3c-0.1,0-0.1,0-0.2,0H1.1c-0.6,0-1.1,0.5-1.1,1.1c0,0,0,0,0,0v18.5
			c0,0.6,0.5,1.1,1.1,1.1c0,0,0,0,0,0h13.1c3.4,0.1,6.8-0.7,9.8-2.3c2.7-1.5,4.9-3.9,6.3-6.7c1.5-3.2,2.3-6.8,2.2-10.4
			c0.1-3.6-0.6-7.1-2.2-10.3L30,8.2c-0.3-0.5-0.1-1.2,0.5-1.5c0.2-0.1,0.3-0.1,0.5-0.1h16.2c0.6,0,1.1,0.5,1.1,1.1
			c0,0.1,0,0.2-0.1,0.4L37.4,36.9c-0.2,0.6,0.1,1.2,0.6,1.4c0.1,0,0.2,0.1,0.4,0.1h6.9c0.5,0,0.9-0.3,1.1-0.8L58.2,1.5
			c0.2-0.6-0.1-1.2-0.7-1.4C57.3,0,57.2,0,57.1,0h-56C0.5,0,0,0.5,0,1.1z"/>
		<path class="st0" d="M88.8,0.7l-7.4,18.4c-0.2,0.6-0.9,0.8-1.5,0.6c-0.3-0.1-0.5-0.3-0.6-0.6L72,0.7C71.8,0.3,71.4,0,71,0h-5.9
			c-0.5,0-0.9,0.3-1.1,0.8L52.3,37c-0.2,0.6,0.1,1.2,0.7,1.4c0.1,0,0.2,0.1,0.3,0.1h7.5c0.5,0,1-0.4,1.1-0.9l5.5-25.1
			c0.1-0.6,0.7-1,1.3-0.9c0.4,0.1,0.7,0.3,0.8,0.7l9.8,24.5c0.2,0.6,0.9,0.9,1.4,0.6c0.3-0.1,0.5-0.3,0.6-0.6l9.8-24.5
			c0.2-0.6,0.9-0.9,1.4-0.6c0.3,0.1,0.6,0.4,0.7,0.8l5.5,25.1c0.1,0.5,0.6,0.9,1.1,0.9h7.5c0.6,0,1.1-0.5,1.1-1.2c0-0.1,0-0.2,0-0.3
			L96.6,0.8C96.5,0.3,96.1,0,95.6,0h-5.8C89.3,0,88.9,0.3,88.8,0.7z"/>
		<path class="st0" d="M145.7,8.1c1.8-1,3.9-1.5,6-1.4h12.4c0.6,0,1.1-0.5,1.1-1.1c0,0,0,0,0,0V1.1c0-0.6-0.5-1.1-1.1-1.1H102
			c-0.6,0-1.1,0.5-1.1,1.1c0,0.1,0,0.2,0.1,0.3l1.5,4.5c0.1,0.3,0.4,0.6,0.8,0.6h10.4c0.6,0,1.1,0.5,1.1,1.1c0,0,0,0,0,0v29.7
			c0,0.6,0.5,1.1,1.1,1.1l0,0h7.4c0.6,0,1.1-0.5,1.1-1.1c0,0,0-0.1,0-0.1l-2.1-29.5c0-0.6,0.4-1.1,1-1.2c0,0,0,0,0.1,0h10.9
			c0.6,0,1.1,0.5,1.1,1.1c0,0.2,0,0.4-0.1,0.5L135,8.8c-1.5,3.2-2.3,6.8-2.2,10.3c-0.1,3.6,0.6,7.1,2.2,10.4
			c1.4,2.8,3.6,5.1,6.3,6.7c3,1.6,6.4,2.4,9.8,2.3h13.1c0.6,0,1.1-0.5,1.1-1.1l0,0V18.8c0-0.6-0.5-1.1-1.1-1.1l0,0h-6.6
			c-0.6,0-1.1,0.5-1.1,1.1c0,0.1,0,0.1,0,0.2l1.8,11.5c0.1,0.6-0.3,1.2-0.9,1.3c-0.1,0-0.1,0-0.2,0h-5.4c-2.1,0.1-4.2-0.4-6.1-1.4
			c-1.6-1-2.9-2.4-3.7-4.2c-0.9-2.2-1.4-4.6-1.3-7c-0.1-2.3,0.4-4.7,1.3-6.8C142.8,10.5,144.1,9.1,145.7,8.1z"/>
	</g>
</g>
</svg>
